<svg xmlns="http://www.w3.org/2000/svg" xmlns:xlink="http://www.w3.org/1999/xlink" contentStyleType="text/css" height="829px" preserveAspectRatio="none" style="width:1944px;height:829px;background:#FFFFFF;" version="1.1" viewBox="0 0 1944 829" width="1944px" zoomAndPan="magnify"><defs/><g><!--class AutoCloseable--><g id="elem_AutoCloseable"><rect codeLine="6" fill="#F1F1F1" height="64.4883" id="AutoCloseable" rx="2.5" ry="2.5" style="stroke:#181818;stroke-width:0.5;" width="129.8428" x="735.41" y="7"/><ellipse cx="750.41" cy="23" fill="#B4A7E5" rx="11" ry="11" style="stroke:#181818;stroke-width:1;"/><path d="M746.8377,19.2651 L746.8377,17.1069 L754.2171,17.1069 L754.2171,19.2651 L751.7518,19.2651 L751.7518,27.3418 L754.2171,27.3418 L754.2171,29.5 L746.8377,29.5 L746.8377,27.3418 L749.3031,27.3418 L749.3031,19.2651 Z " fill="#000000"/><text fill="#000000" font-family="sans-serif" font-size="14" font-style="italic" lengthAdjust="spacing" textLength="97.8428" x="764.41" y="28.291">AutoCloseable</text><line style="stroke:#181818;stroke-width:0.5;" x1="736.41" x2="864.2528" y1="39" y2="39"/><line style="stroke:#181818;stroke-width:0.5;" x1="736.41" x2="864.2528" y1="47" y2="47"/><text fill="#000000" font-family="sans-serif" font-size="14" lengthAdjust="spacing" textLength="96.9814" x="741.41" y="64.5352">+close() : void</text></g><!--class KemManager--><g id="elem_KemManager"><rect codeLine="10" fill="#F1F1F1" height="146.9297" id="KemManager" rx="2.5" ry="2.5" style="stroke:#181818;stroke-width:0.5;" width="412.9209" x="355.88" y="122.49"/><ellipse cx="513.8517" cy="138.49" fill="#B4A7E5" rx="11" ry="11" style="stroke:#181818;stroke-width:1;"/><path d="M510.2794,134.7551 L510.2794,132.5969 L517.6588,132.5969 L517.6588,134.7551 L515.1935,134.7551 L515.1935,142.8318 L517.6588,142.8318 L517.6588,144.99 L510.2794,144.99 L510.2794,142.8318 L512.7447,142.8318 L512.7447,134.7551 Z " fill="#000000"/><text fill="#000000" font-family="sans-serif" font-size="14" font-style="italic" lengthAdjust="spacing" textLength="88.4775" x="534.3517" y="143.781">KemManager</text><line style="stroke:#181818;stroke-width:0.5;" x1="356.88" x2="767.8009" y1="154.49" y2="154.49"/><text fill="#000000" font-family="sans-serif" font-size="14" lengthAdjust="spacing" textLength="172.0195" x="361.88" y="172.0252">+kemDetails: KemDetails</text><line style="stroke:#181818;stroke-width:0.5;" x1="356.88" x2="767.8009" y1="178.9783" y2="178.9783"/><text fill="#000000" font-family="sans-serif" font-size="14" lengthAdjust="spacing" textLength="223.1182" x="361.88" y="196.5134">+generateKeyPair() : KemKeypair</text><text fill="#000000" font-family="sans-serif" font-size="14" lengthAdjust="spacing" textLength="400.9209" x="361.88" y="213.0017">+encapsulate(pk: KemPublicKey) : KemEncapsulationResult</text><text fill="#000000" font-family="sans-serif" font-size="14" lengthAdjust="spacing" textLength="354.9697" x="361.88" y="229.49">+decapsulate(ct: KemCiphertext) : KemSharedSecret</text><text fill="#000000" font-family="sans-serif" font-size="14" lengthAdjust="spacing" textLength="220.7188" x="361.88" y="245.9783">+getPublicKey() : KemPublicKey?</text><text fill="#000000" font-family="sans-serif" font-size="14" lengthAdjust="spacing" textLength="230.7676" x="361.88" y="262.4666">+getPrivateKey() : KemPrivateKey?</text></g><!--class KemTimingManager--><g id="elem_KemTimingManager"><rect codeLine="19" fill="#F1F1F1" height="97.4648" id="KemTimingManager" rx="2.5" ry="2.5" style="stroke:#181818;stroke-width:0.5;" width="298.6719" x="7" y="349.46"/><ellipse cx="84.1299" cy="365.46" fill="#B4A7E5" rx="11" ry="11" style="stroke:#181818;stroke-width:1;"/><path d="M80.5576,361.7251 L80.5576,359.5669 L87.937,359.5669 L87.937,361.7251 L85.4717,361.7251 L85.4717,369.8018 L87.937,369.8018 L87.937,371.96 L80.5576,371.96 L80.5576,369.8018 L83.0229,369.8018 L83.0229,361.7251 Z " fill="#000000"/><text fill="#000000" font-family="sans-serif" font-size="14" font-style="italic" lengthAdjust="spacing" textLength="135.9121" x="104.6299" y="370.751">KemTimingManager</text><line style="stroke:#181818;stroke-width:0.5;" x1="8" x2="304.6719" y1="381.46" y2="381.46"/><line style="stroke:#181818;stroke-width:0.5;" x1="8" x2="304.6719" y1="389.46" y2="389.46"/><text fill="#000000" font-family="sans-serif" font-size="14" lengthAdjust="spacing" textLength="164.1104" x="13" y="406.9952">+timeKeygenNs() : Long</text><text fill="#000000" font-family="sans-serif" font-size="14" lengthAdjust="spacing" textLength="282.3857" x="13" y="423.4834">+timeEncapsNs(pk: KemPublicKey) : Long</text><text fill="#000000" font-family="sans-serif" font-size="14" lengthAdjust="spacing" textLength="286.6719" x="13" y="439.9717">+timeDecapsNs(ct: KemCiphertext) : Long</text></g><!--class SignatureManager--><g id="elem_SignatureManager"><rect codeLine="25" fill="#F1F1F1" height="113.9531" id="SignatureManager" rx="2.5" ry="2.5" style="stroke:#181818;stroke-width:0.5;" width="460.6699" x="877" y="138.98"/><ellipse cx="1041.7563" cy="154.98" fill="#B4A7E5" rx="11" ry="11" style="stroke:#181818;stroke-width:1;"/><path d="M1038.1841,151.2451 L1038.1841,149.0869 L1045.5635,149.0869 L1045.5635,151.2451 L1043.0981,151.2451 L1043.0981,159.3218 L1045.5635,159.3218 L1045.5635,161.48 L1038.1841,161.48 L1038.1841,159.3218 L1040.6494,159.3218 L1040.6494,151.2451 Z " fill="#000000"/><text fill="#000000" font-family="sans-serif" font-size="14" font-style="italic" lengthAdjust="spacing" textLength="122.6572" x="1062.2563" y="160.271">SignatureManager</text><line style="stroke:#181818;stroke-width:0.5;" x1="878" x2="1336.6699" y1="170.98" y2="170.98"/><text fill="#000000" font-family="sans-serif" font-size="14" lengthAdjust="spacing" textLength="197.0596" x="883" y="188.5152">+signatureDetails: SigDetails</text><line style="stroke:#181818;stroke-width:0.5;" x1="878" x2="1336.6699" y1="195.4683" y2="195.4683"/><text fill="#000000" font-family="sans-serif" font-size="14" lengthAdjust="spacing" textLength="213.4248" x="883" y="213.0034">+generateKeyPair() : SigKeypair</text><text fill="#000000" font-family="sans-serif" font-size="14" lengthAdjust="spacing" textLength="229.0518" x="883" y="229.4917">+sign(msg: ByteArray) : ByteArray</text><text fill="#000000" font-family="sans-serif" font-size="14" lengthAdjust="spacing" textLength="448.6699" x="883" y="245.98">+verify(msg: ByteArray, sig: ByteArray, pk: SigPublicKey) : Boolean</text></g><!--class SignatureTimingManager--><g id="elem_SignatureTimingManager"><rect codeLine="32" fill="#F1F1F1" height="97.4648" id="SignatureTimingManager" rx="2.5" ry="2.5" style="stroke:#181818;stroke-width:0.5;" width="490.1738" x="930.25" y="349.46"/><ellipse cx="1086.041" cy="365.46" fill="#B4A7E5" rx="11" ry="11" style="stroke:#181818;stroke-width:1;"/><path d="M1082.4688,361.7251 L1082.4688,359.5669 L1089.8481,359.5669 L1089.8481,361.7251 L1087.3828,361.7251 L1087.3828,369.8018 L1089.8481,369.8018 L1089.8481,371.96 L1082.4688,371.96 L1082.4688,369.8018 L1084.9341,369.8018 L1084.9341,361.7251 Z " fill="#000000"/><text fill="#000000" font-family="sans-serif" font-size="14" font-style="italic" lengthAdjust="spacing" textLength="170.0918" x="1106.541" y="370.751">SignatureTimingManager</text><line style="stroke:#181818;stroke-width:0.5;" x1="931.25" x2="1419.4238" y1="381.46" y2="381.46"/><line style="stroke:#181818;stroke-width:0.5;" x1="931.25" x2="1419.4238" y1="389.46" y2="389.46"/><text fill="#000000" font-family="sans-serif" font-size="14" lengthAdjust="spacing" textLength="164.1104" x="936.25" y="406.9952">+timeKeygenNs() : Long</text><text fill="#000000" font-family="sans-serif" font-size="14" lengthAdjust="spacing" textLength="246.0049" x="936.25" y="423.4834">+timeSignNs(msg: ByteArray) : Long</text><text fill="#000000" font-family="sans-serif" font-size="14" lengthAdjust="spacing" textLength="478.1738" x="936.25" y="439.9717">+timeVerifyNs(msg: ByteArray, sig: ByteArray, pk: SigPublicKey) : Long</text></g><!--class Oqs--><g id="elem_Oqs"><rect codeLine="43" fill="#E1F5FE" height="122.5742" id="Oqs" rx="2.5" ry="2.5" style="stroke:#181818;stroke-width:0.5;" width="544.6631" x="346" y="336.91"/><ellipse cx="542.2095" cy="357.2205" fill="#ADD1B2" rx="11" ry="11" style="stroke:#181818;stroke-width:1;"/><path d="M544.6826,363.3636 Q544.1016,363.6624 543.4624,363.8119 Q542.8232,363.9613 542.1177,363.9613 Q539.6108,363.9613 538.291,362.3094 Q536.9712,360.6576 536.9712,357.5365 Q536.9712,354.4071 538.291,352.7552 Q539.6108,351.1034 542.1177,351.1034 Q542.8232,351.1034 543.4707,351.2528 Q544.1182,351.4022 544.6826,351.701 L544.6826,354.4237 Q544.0518,353.8426 543.4583,353.5728 Q542.8647,353.3031 542.2339,353.3031 Q540.8892,353.3031 540.2043,354.3697 Q539.5195,355.4364 539.5195,357.5365 Q539.5195,359.6283 540.2043,360.6949 Q540.8892,361.7616 542.2339,361.7616 Q542.8647,361.7616 543.4583,361.4918 Q544.0518,361.222 544.6826,360.641 Z " fill="#000000"/><text fill="#000000" font-family="sans-serif" font-size="12" font-style="italic" lengthAdjust="spacing" textLength="147.7441" x="560.7095" y="353.5116">&#171;singleton / SDK factory&#187;</text><text fill="#000000" font-family="sans-serif" font-size="14" lengthAdjust="spacing" textLength="26.8242" x="621.1694" y="369.578">Oqs</text><line style="stroke:#181818;stroke-width:0.5;" x1="347" x2="889.6631" y1="377.5311" y2="377.5311"/><line style="stroke:#181818;stroke-width:0.5;" x1="347" x2="889.6631" y1="385.5311" y2="385.5311"/><text fill="#000000" font-family="sans-serif" font-size="14" lengthAdjust="spacing" textLength="379.1279" x="352" y="403.0662">+createKemManager(alg: KemAlgorithm) : KemManager</text><text fill="#000000" font-family="sans-serif" font-size="14" lengthAdjust="spacing" textLength="473.9971" x="352" y="419.5545">+createKemTimingManager(alg: KemAlgorithm) : KemTimingManager</text><text fill="#000000" font-family="sans-serif" font-size="14" lengthAdjust="spacing" textLength="481.667" x="352" y="436.0428">+createSignatureManager(alg: SignatureAlgorithm) : SignatureManager</text><text fill="#000000" font-family="sans-serif" font-size="14" lengthAdjust="spacing" textLength="532.6631" x="352" y="452.5311">+createSignatureTimingManager(alg: SignatureAlgorithm) : SigTimingManager</text></g><!--class KEMs--><g id="elem_KEMs"><rect codeLine="50" fill="#E1F5FE" height="155.5508" id="KEMs" rx="2.5" ry="2.5" style="stroke:#181818;stroke-width:0.5;" width="442.9033" x="1494.88" y="320.42"/><ellipse cx="1646.7135" cy="340.7305" fill="#ADD1B2" rx="11" ry="11" style="stroke:#181818;stroke-width:1;"/><path d="M1649.1866,346.8736 Q1648.6056,347.1724 1647.9664,347.3219 Q1647.3273,347.4713 1646.6217,347.4713 Q1644.1149,347.4713 1642.795,345.8194 Q1641.4752,344.1676 1641.4752,341.0465 Q1641.4752,337.9171 1642.795,336.2652 Q1644.1149,334.6134 1646.6217,334.6134 Q1647.3273,334.6134 1647.9747,334.7628 Q1648.6222,334.9122 1649.1866,335.211 L1649.1866,337.9337 Q1648.5558,337.3526 1647.9623,337.0828 Q1647.3688,336.8131 1646.7379,336.8131 Q1645.3932,336.8131 1644.7084,337.8797 Q1644.0236,338.9464 1644.0236,341.0465 Q1644.0236,343.1383 1644.7084,344.2049 Q1645.3932,345.2716 1646.7379,345.2716 Q1647.3688,345.2716 1647.9623,345.0018 Q1648.5558,344.732 1649.1866,344.151 Z " fill="#000000"/><text fill="#000000" font-family="sans-serif" font-size="12" font-style="italic" lengthAdjust="spacing" textLength="134.7363" x="1665.2135" y="337.0216">&#171;singleton / metadata&#187;</text><text fill="#000000" font-family="sans-serif" font-size="14" lengthAdjust="spacing" textLength="35.9229" x="1714.6202" y="353.088">KEMs</text><line style="stroke:#181818;stroke-width:0.5;" x1="1495.88" x2="1936.7833" y1="361.0411" y2="361.0411"/><line style="stroke:#181818;stroke-width:0.5;" x1="1495.88" x2="1936.7833" y1="369.0411" y2="369.0411"/><text fill="#000000" font-family="sans-serif" font-size="14" lengthAdjust="spacing" textLength="209.2412" x="1500.88" y="386.5762">+supportedIds() : List&lt;String&gt;</text><text fill="#000000" font-family="sans-serif" font-size="14" lengthAdjust="spacing" textLength="193.3066" x="1500.88" y="403.0645">+enabledIds() : List&lt;String&gt;</text><text fill="#000000" font-family="sans-serif" font-size="14" lengthAdjust="spacing" textLength="430.9033" x="1500.88" y="419.5528">+supportedAlgorithms(incUnk: Boolean) : List&lt;KemAlgorithm&gt;</text><text fill="#000000" font-family="sans-serif" font-size="14" lengthAdjust="spacing" textLength="414.9688" x="1500.88" y="436.0411">+enabledAlgorithms(incUnk: Boolean) : List&lt;KemAlgorithm&gt;</text><text fill="#000000" font-family="sans-serif" font-size="14" lengthAdjust="spacing" textLength="295.4355" x="1500.88" y="452.5294">+isSupported(alg: KemAlgorithm) : Boolean</text><text fill="#000000" font-family="sans-serif" font-size="14" lengthAdjust="spacing" textLength="278.8857" x="1500.88" y="469.0177">+isEnabled(alg: KemAlgorithm) : Boolean</text></g><!--class Sigs--><g id="elem_Sigs"><rect codeLine="59" fill="#E1F5FE" height="155.5508" id="Sigs" rx="2.5" ry="2.5" style="stroke:#181818;stroke-width:0.5;" width="433.21" x="1211.73" y="542.97"/><ellipse cx="1358.7168" cy="563.2805" fill="#ADD1B2" rx="11" ry="11" style="stroke:#181818;stroke-width:1;"/><path d="M1361.19,569.4236 Q1360.6089,569.7224 1359.9697,569.8719 Q1359.3306,570.0213 1358.625,570.0213 Q1356.1182,570.0213 1354.7984,568.3694 Q1353.4785,566.7176 1353.4785,563.5965 Q1353.4785,560.4671 1354.7984,558.8152 Q1356.1182,557.1634 1358.625,557.1634 Q1359.3306,557.1634 1359.978,557.3128 Q1360.6255,557.4622 1361.19,557.761 L1361.19,560.4837 Q1360.5591,559.9026 1359.9656,559.6328 Q1359.3721,559.3631 1358.7412,559.3631 Q1357.3965,559.3631 1356.7117,560.4297 Q1356.0269,561.4964 1356.0269,563.5965 Q1356.0269,565.6883 1356.7117,566.7549 Q1357.3965,567.8216 1358.7412,567.8216 Q1359.3721,567.8216 1359.9656,567.5518 Q1360.5591,567.282 1361.19,566.701 Z " fill="#000000"/><text fill="#000000" font-family="sans-serif" font-size="12" font-style="italic" lengthAdjust="spacing" textLength="134.7363" x="1377.2168" y="559.5716">&#171;singleton / metadata&#187;</text><text fill="#000000" font-family="sans-serif" font-size="14" lengthAdjust="spacing" textLength="27.4531" x="1430.8584" y="575.638">Sigs</text><line style="stroke:#181818;stroke-width:0.5;" x1="1212.73" x2="1643.94" y1="583.5911" y2="583.5911"/><line style="stroke:#181818;stroke-width:0.5;" x1="1212.73" x2="1643.94" y1="591.5911" y2="591.5911"/><text fill="#000000" font-family="sans-serif" font-size="14" lengthAdjust="spacing" textLength="209.2412" x="1217.73" y="609.1262">+supportedIds() : List&lt;String&gt;</text><text fill="#000000" font-family="sans-serif" font-size="14" lengthAdjust="spacing" textLength="193.3066" x="1217.73" y="625.6145">+enabledIds() : List&lt;String&gt;</text><text fill="#000000" font-family="sans-serif" font-size="14" lengthAdjust="spacing" textLength="421.21" x="1217.73" y="642.1028">+supportedAlgorithms(incUnk: Boolean) : List&lt;SigAlgorithm&gt;</text><text fill="#000000" font-family="sans-serif" font-size="14" lengthAdjust="spacing" textLength="405.2754" x="1217.73" y="658.5911">+enabledAlgorithms(incUnk: Boolean) : List&lt;SigAlgorithm&gt;</text><text fill="#000000" font-family="sans-serif" font-size="14" lengthAdjust="spacing" textLength="285.7422" x="1217.73" y="675.0794">+isSupported(alg: SigAlgorithm) : Boolean</text><text fill="#000000" font-family="sans-serif" font-size="14" lengthAdjust="spacing" textLength="269.1924" x="1217.73" y="691.5677">+isEnabled(alg: SigAlgorithm) : Boolean</text></g><!--class KeyEncapsulation--><g id="elem_KeyEncapsulation"><rect codeLine="70" fill="#F1F1F1" height="80.9766" id="KeyEncapsulation" rx="2.5" ry="2.5" style="stroke:#181818;stroke-width:0.5;" width="373.1631" x="405.75" y="580.26"/><ellipse cx="528.8721" cy="596.26" fill="#ADD1B2" rx="11" ry="11" style="stroke:#181818;stroke-width:1;"/><path d="M531.3452,602.4031 Q530.7642,602.7019 530.125,602.8513 Q529.4858,603.0007 528.7803,603.0007 Q526.2734,603.0007 524.9536,601.3489 Q523.6338,599.697 523.6338,596.5759 Q523.6338,593.4465 524.9536,591.7947 Q526.2734,590.1428 528.7803,590.1428 Q529.4858,590.1428 530.1333,590.2922 Q530.7808,590.4416 531.3452,590.7405 L531.3452,593.4631 Q530.7144,592.8821 530.1208,592.6123 Q529.5273,592.3425 528.8965,592.3425 Q527.5518,592.3425 526.8669,593.4092 Q526.1821,594.4758 526.1821,596.5759 Q526.1821,598.6677 526.8669,599.7344 Q527.5518,600.801 528.8965,600.801 Q529.5273,600.801 530.1208,600.5312 Q530.7144,600.2615 531.3452,599.6804 Z " fill="#000000"/><text fill="#000000" font-family="sans-serif" font-size="14" lengthAdjust="spacing" textLength="118.4189" x="549.3721" y="601.551">KeyEncapsulation</text><line style="stroke:#181818;stroke-width:0.5;" x1="406.75" x2="777.9131" y1="612.26" y2="612.26"/><line style="stroke:#181818;stroke-width:0.5;" x1="406.75" x2="777.9131" y1="620.26" y2="620.26"/><text fill="#000000" font-family="sans-serif" font-size="14" lengthAdjust="spacing" textLength="263.5596" x="411.75" y="637.7952">~KeyEncapsulation(alg: KemAlgorithm)</text><text fill="#000000" font-family="sans-serif" font-size="14" lengthAdjust="spacing" textLength="361.1631" x="411.75" y="654.2834">~KeyEncapsulation(alg: KemAlgorithm, sk: ByteArray)</text></g><!--class Signature--><g id="elem_Signature"><rect codeLine="75" fill="#F1F1F1" height="80.9766" id="Signature" rx="2.5" ry="2.5" style="stroke:#181818;stroke-width:0.5;" width="353.1133" x="818.78" y="580.26"/><ellipse cx="958.9919" cy="596.26" fill="#ADD1B2" rx="11" ry="11" style="stroke:#181818;stroke-width:1;"/><path d="M961.4651,602.4031 Q960.884,602.7019 960.2448,602.8513 Q959.6057,603.0007 958.9001,603.0007 Q956.3933,603.0007 955.0735,601.3489 Q953.7536,599.697 953.7536,596.5759 Q953.7536,593.4465 955.0735,591.7947 Q956.3933,590.1428 958.9001,590.1428 Q959.6057,590.1428 960.2531,590.2922 Q960.9006,590.4416 961.4651,590.7405 L961.4651,593.4631 Q960.8342,592.8821 960.2407,592.6123 Q959.6472,592.3425 959.0163,592.3425 Q957.6716,592.3425 956.9868,593.4092 Q956.302,594.4758 956.302,596.5759 Q956.302,598.6677 956.9868,599.7344 Q957.6716,600.801 959.0163,600.801 Q959.6472,600.801 960.2407,600.5312 Q960.8342,600.2615 961.4651,599.6804 Z " fill="#000000"/><text fill="#000000" font-family="sans-serif" font-size="14" lengthAdjust="spacing" textLength="64.1895" x="979.4919" y="601.551">Signature</text><line style="stroke:#181818;stroke-width:0.5;" x1="819.78" x2="1170.8933" y1="612.26" y2="612.26"/><line style="stroke:#181818;stroke-width:0.5;" x1="819.78" x2="1170.8933" y1="620.26" y2="620.26"/><text fill="#000000" font-family="sans-serif" font-size="14" lengthAdjust="spacing" textLength="243.5098" x="824.78" y="637.7952">~Signature(alg: SignatureAlgorithm)</text><text fill="#000000" font-family="sans-serif" font-size="14" lengthAdjust="spacing" textLength="341.1133" x="824.78" y="654.2834">~Signature(alg: SignatureAlgorithm, sk: ByteArray)</text></g><!--class LiboqsJNI--><g id="elem_LiboqsJNI"><rect codeLine="80" fill="#FFEBEE" height="56.6211" id="LiboqsJNI" rx="2.5" ry="2.5" style="stroke:#181818;stroke-width:0.5;" width="146.5762" x="1192.05" y="765.52"/><ellipse cx="1207.05" cy="785.8305" fill="#ADD1B2" rx="11" ry="11" style="stroke:#181818;stroke-width:1;"/><path d="M1209.5231,791.9736 Q1208.9421,792.2724 1208.3029,792.4219 Q1207.6638,792.5713 1206.9582,792.5713 Q1204.4514,792.5713 1203.1315,790.9194 Q1201.8117,789.2676 1201.8117,786.1465 Q1201.8117,783.0171 1203.1315,781.3652 Q1204.4514,779.7134 1206.9582,779.7134 Q1207.6638,779.7134 1208.3112,779.8628 Q1208.9587,780.0122 1209.5231,780.311 L1209.5231,783.0337 Q1208.8923,782.4526 1208.2988,782.1828 Q1207.7053,781.9131 1207.0744,781.9131 Q1205.7297,781.9131 1205.0449,782.9797 Q1204.3601,784.0464 1204.3601,786.1465 Q1204.3601,788.2383 1205.0449,789.3049 Q1205.7297,790.3716 1207.0744,790.3716 Q1207.7053,790.3716 1208.2988,790.1018 Q1208.8923,789.832 1209.5231,789.251 Z " fill="#000000"/><text fill="#000000" font-family="sans-serif" font-size="12" font-style="italic" lengthAdjust="spacing" textLength="118.5762" x="1219.05" y="782.1216">&#171;native C boundary&#187;</text><text fill="#000000" font-family="sans-serif" font-size="14" lengthAdjust="spacing" textLength="63.6016" x="1246.5373" y="798.188">LiboqsJNI</text><line style="stroke:#181818;stroke-width:0.5;" x1="1193.05" x2="1337.6262" y1="806.1411" y2="806.1411"/><line style="stroke:#181818;stroke-width:0.5;" x1="1193.05" x2="1337.6262" y1="814.1411" y2="814.1411"/></g><!--reverse link AutoCloseable to KemManager--><g id="link_AutoCloseable_KemManager"><path codeLine="38" d="M736.5092,81.7317 C714.0692,96.3217 701.53,104.47 674.38,122.12 " fill="none" id="AutoCloseable-backto-KemManager" style="stroke:#181818;stroke-width:1;"/><polygon fill="none" points="751.6,71.92,733.2387,76.7014,739.7798,86.7619,751.6,71.92" style="stroke:#181818;stroke-width:1;"/></g><!--reverse link AutoCloseable to SignatureManager--><g id="link_AutoCloseable_SignatureManager"><path codeLine="39" d="M879.2734,80.0222 C917.3434,99.2122 950.92,116.13 995.5,138.6 " fill="none" id="AutoCloseable-backto-SignatureManager" style="stroke:#181818;stroke-width:1;"/><polygon fill="none" points="863.2,71.92,876.5727,85.38,881.9741,74.6643,863.2,71.92" style="stroke:#181818;stroke-width:1;"/></g><!--reverse link KemManager to KemTimingManager--><g id="link_KemManager_KemTimingManager"><path codeLine="40" d="M398.4665,277.7716 C344.9565,304.1616 302.05,325.33 253.93,349.06 " fill="none" id="KemManager-backto-KemTimingManager" style="stroke:#181818;stroke-width:1;"/><polygon fill="none" points="414.61,269.81,395.8126,272.3905,401.1204,283.1528,414.61,269.81" style="stroke:#181818;stroke-width:1;"/></g><!--reverse link SignatureManager to SignatureTimingManager--><g id="link_SignatureManager_SignatureTimingManager"><path codeLine="41" d="M1132.2469,270.3044 C1142.4969,300.4944 1149.21,320.27 1159.01,349.1 " fill="none" id="SignatureManager-backto-SignatureTimingManager" style="stroke:#181818;stroke-width:1;"/><polygon fill="none" points="1126.46,253.26,1126.5654,272.2334,1137.9283,268.3755,1126.46,253.26" style="stroke:#181818;stroke-width:1;"/></g><!--link KEMs to Sigs--><!--reverse link KemTimingManager to KeyEncapsulation--><g id="link_KemTimingManager_KeyEncapsulation"><path codeLine="82" d="M267.5422,455.4443 C345.9722,495.1143 439.83,542.6 513.43,579.83 " fill="none" id="KemTimingManager-backto-KeyEncapsulation" style="stroke:#181818;stroke-width:1;stroke-dasharray:7.0,7.0;"/><polygon fill="none" points="251.48,447.32,264.8341,460.7984,270.2503,450.0902,251.48,447.32" style="stroke:#181818;stroke-width:1;"/></g><!--reverse link SignatureTimingManager to Signature--><g id="link_SignatureTimingManager_Signature"><path codeLine="83" d="M1124.678,461.2645 C1092.298,500.9345 1058.3,542.6 1027.91,579.83 " fill="none" id="SignatureTimingManager-backto-Signature" style="stroke:#181818;stroke-width:1;stroke-dasharray:7.0,7.0;"/><polygon fill="none" points="1136.06,447.32,1120.0298,457.4705,1129.3262,465.0585,1136.06,447.32" style="stroke:#181818;stroke-width:1;"/></g><!--link Oqs to KeyEncapsulation--><g id="link_Oqs_KeyEncapsulation"><path codeLine="84" d="M611.2,459.75 C606.69,498.01 601.6928,540.4013 597.7428,573.8913 " fill="none" id="Oqs-to-KeyEncapsulation" style="stroke:#181818;stroke-width:1;stroke-dasharray:7.0,7.0;"/><polygon fill="#181818" points="597.04,579.85,602.0667,571.3805,597.6257,574.8844,594.1217,570.4434,597.04,579.85" style="stroke:#181818;stroke-width:1;"/><text fill="#000000" font-family="sans-serif" font-size="13" lengthAdjust="spacing" textLength="73.0933" x="607.12" y="514.5384">instantiates</text></g><!--link Oqs to Signature--><g id="link_Oqs_Signature"><path codeLine="85" d="M721.85,459.75 C787.25,498.01 864.7213,543.33 921.9613,576.82 " fill="none" id="Oqs-to-Signature" style="stroke:#181818;stroke-width:1;stroke-dasharray:7.0,7.0;"/><polygon fill="#181818" points="927.14,579.85,921.3919,571.8526,922.8244,577.325,917.3519,578.7575,927.14,579.85" style="stroke:#181818;stroke-width:1;"/><text fill="#000000" font-family="sans-serif" font-size="13" lengthAdjust="spacing" textLength="73.0933" x="819.14" y="514.5384">instantiates</text></g><!--link KeyEncapsulation to LiboqsJNI--><g id="link_KeyEncapsulation_LiboqsJNI"><path codeLine="86" d="M689.78,661.65 C723.75,674.6 762.37,688.25 798.34,698.52 C935.14,737.56 1092.9962,765.7566 1185.7562,780.6866 " fill="none" id="KeyEncapsulation-to-LiboqsJNI" style="stroke:#181818;stroke-width:1;"/><polygon fill="#181818" points="1191.68,781.64,1183.43,776.2607,1186.7435,780.8455,1182.1587,784.159,1191.68,781.64" style="stroke:#181818;stroke-width:1;"/><text fill="#000000" font-family="sans-serif" font-size="13" lengthAdjust="spacing" textLength="60.4424" x="964.6" y="737.0884">delegates</text></g><!--link Signature to LiboqsJNI--><g id="link_Signature_LiboqsJNI"><path codeLine="87" d="M1058.3,661.64 C1108.47,693.43 1172.3615,733.919 1216.6215,761.959 " fill="none" id="Signature-to-LiboqsJNI" style="stroke:#181818;stroke-width:1;"/><polygon fill="#181818" points="1221.69,765.17,1216.228,756.9745,1217.4663,762.4941,1211.9466,763.7324,1221.69,765.17" style="stroke:#181818;stroke-width:1;"/><text fill="#000000" font-family="sans-serif" font-size="13" lengthAdjust="spacing" textLength="60.4424" x="1179" y="737.0884">delegates</text></g><!--link KEMs to LiboqsJNI--><g id="link_KEMs_LiboqsJNI"><path codeLine="88" d="M1725,476.36 C1728.03,543.67 1720.73,639.53 1665.34,698.52 C1621.44,745.26 1447.9377,772.1492 1344.9277,784.4392 " fill="none" id="KEMs-to-LiboqsJNI" style="stroke:#181818;stroke-width:1;"/><polygon fill="#181818" points="1338.97,785.15,1348.3805,788.0556,1343.9348,784.5577,1347.4327,780.112,1338.97,785.15" style="stroke:#181818;stroke-width:1;"/><text fill="#000000" font-family="sans-serif" font-size="13" lengthAdjust="spacing" textLength="60.4424" x="1724.62" y="625.8084">delegates</text></g><!--link Sigs to LiboqsJNI--><g id="link_Sigs_LiboqsJNI"><path codeLine="89" d="M1354.94,698.78 C1332.3,722.55 1312.9494,742.8566 1295.6994,760.9566 " fill="none" id="Sigs-to-LiboqsJNI" style="stroke:#181818;stroke-width:1;"/><polygon fill="#181818" points="1291.56,765.3,1300.6647,761.5445,1295.0095,761.6805,1294.8735,756.0253,1291.56,765.3" style="stroke:#181818;stroke-width:1;"/><text fill="#000000" font-family="sans-serif" font-size="13" lengthAdjust="spacing" textLength="60.4424" x="1328.44" y="737.0884">delegates</text></g><!--SRC=[pPPHRzCm4CVVyoaiyL84BKDYBrNLgTrIQNGR4m5U40zkSakj9dPcNmg5ZS-EuoHkd3Hbx8ctslUxyzt_V4vHP0G5MGb4aPA8IGYH2Uwf3UCPbJGbOKALcY5AjieHBaF10_OJo4a3uI821HbvrzoKb6-ApTCJpsCSGTxH4CWiHt6U20LqbG3vvH7oAYoMWvTaJBQ2HTvZ4rz2UaqvZK6Mx0RI2q3A4ZKkRDNlmX831qaHbh2xfKoQU9hGoqml2m9uI3EL9neQP1jZlSrN2GirKz6-HRG67q7_mi8pWhrdY8OyPzaQ9C8Fh5o3DPKG1H1Am38VjD7hPEp6MKr8jYrpjeZTEUieyOcbZCUE7iZIWjN5toWJuahmk3QKrMZ3eMgRu0LKuC7Y3Eda4h2OKymbEBceUjTsI7D_wP0c6Xqg8WnI5O_9V8SmavAQLEsYOBOWsTskHRqcsjLP5oNhu4x9So4IeBodbdzLjt3Kszrqcz0Nasq7Urg-jV3kp4mUXf7upeUDsUWZsdto6kFK3EEKxdMwsutdEdZcYI0VxXMPJ9Gs9822apSak5WIBJ8AkPjEoGl_xU9quLT3By5SXJgV0KrYS_TcIImamtLQ3KHzIDF7ERxNqqtI-hVBA_tjhXEb8s0toe5SUcEv6JtMmYtzwxPogHwRY29jowRoB1DwCgFBgBgHJE4aq8ypZwVb8rTSWLwpzRUfgG7ZuMU-iUDXtPgIDcC_nvMfe3xvSB_gsJIiNnvqdBJoQM7_H_bqMi-Lh-FQaQz979UlZzJocNit_BfcKGJycndngL7JNapOELz48-Blzkw1DZqDqw_WflbsEYqj9wWyqIvxv-j9LFzvLsmbxjNxcqjzZxGJsm8vr_-9SXxHykbQBFovxtjUvoiyUHYDEZfvFHyL0rkRLpoOez6qA_EOCAwGScJwfL6MswlI0Ze1XhgH-vh69884OeFkO_GpvRqu5kA8-Gy0]--></g></svg>